<svg id="icon" xmlns="http://www.w3.org/2000/svg" viewBox="0 0 32 32"><defs><style>.cls-1{fill:none;}</style></defs><title>view</title><circle cx="16" cy="16" r="4"/><path d="M30.94,15.66A16.69,16.69,0,0,0,16,6,16.69,16.69,0,0,0,1.06,15.66a1,1,0,0,0,0,.68A16.69,16.69,0,0,0,16,26,16.69,16.69,0,0,0,30.94,16.34,1,1,0,0,0,30.94,15.66ZM16,24c-5.3,0-10.9-3.93-12.93-8C5.1,11.93,10.7,8,16,8s10.9,3.93,12.93,8C26.9,20.07,21.3,24,16,24Z"/><rect id="_Transparent_Rectangle_" data-name="&lt;Transparent Rectangle&gt;" class="cls-1" width="32" height="32"/></svg>
